<svg xmlns="http://www.w3.org/2000/svg" viewBox="0 0 46.5 30.43"><defs><style>.cls-1{fill:#fff;}</style></defs><g id="Layer_2" data-name="Layer 2"><g id="Layer_1-2" data-name="Layer 1"><polyline class="cls-1" points="46.5 29.07 46.5 30.43 0 30.43 0 29.07"/><polygon class="cls-1" points="0 0 46.5 0 46.5 1.37 0 1.37 0 0 0 0"/><path class="cls-1" d="M6.43,13.86H.35a12.42,12.42,0,0,1,.79-3.45A10.35,10.35,0,0,1,3.52,6.73,10.87,10.87,0,0,1,7.24,4.34a13.19,13.19,0,0,1,4.86-.85A12,12,0,0,1,18.18,5a10.36,10.36,0,0,1,4.15,4.65l-5.47,2.27a5.65,5.65,0,0,0-2-2.62,4.92,4.92,0,0,0-2.78-.8A5.51,5.51,0,0,0,9.73,9a5.17,5.17,0,0,0-1.81,1.38,6.64,6.64,0,0,0-1.17,2.17,7.83,7.83,0,0,0-.32,1.33Z"/><path class="cls-1" d="M23,19.18l-.19.57a10.91,10.91,0,0,1-1.69,3.08,9.62,9.62,0,0,1-2.49,2.23,11.31,11.31,0,0,1-3.13,1.37,13.24,13.24,0,0,1-3.59.47,12.55,12.55,0,0,1-4.72-.85,10.47,10.47,0,0,1-3.67-2.39A10.75,10.75,0,0,1,1.15,20,12.64,12.64,0,0,1,.3,15.22h6v.13A9.17,9.17,0,0,0,6.68,18a5.82,5.82,0,0,0,1.11,2.09,5,5,0,0,0,1.83,1.37,6.21,6.21,0,0,0,2.53.48,6.9,6.9,0,0,0,1.65-.19,4,4,0,0,0,1.43-.62,3.43,3.43,0,0,0,1-1.1,4,4,0,0,0,.37-.81H23Z"/><path class="cls-1" d="M29.12,13.86H23a12.56,12.56,0,0,1,.78-3.42A10.46,10.46,0,0,1,26.2,6.75a10.87,10.87,0,0,1,3.72-2.39,13.19,13.19,0,0,1,4.86-.85A12,12,0,0,1,40.86,5,10.42,10.42,0,0,1,45,9.66l-5.46,2.25a5.65,5.65,0,0,0-2-2.62,5,5,0,0,0-2.78-.8A5.51,5.51,0,0,0,32.42,9a5.09,5.09,0,0,0-1.81,1.38,6.64,6.64,0,0,0-1.17,2.17,7.61,7.61,0,0,0-.32,1.33Z"/><path class="cls-1" d="M46.21,15.22c0,.67-.07,1.29-.13,1.87a11.38,11.38,0,0,1-.58,2.68,10.57,10.57,0,0,1-1.69,3.08,9.67,9.67,0,0,1-2.49,2.24,11.74,11.74,0,0,1-3.13,1.36,13.13,13.13,0,0,1-3.59.47,12.55,12.55,0,0,1-4.72-.85,10.56,10.56,0,0,1-3.67-2.39A10.92,10.92,0,0,1,23.82,20,13.16,13.16,0,0,1,23,15.22h6v.13A9.07,9.07,0,0,0,29.37,18a5.82,5.82,0,0,0,1.11,2.09,5,5,0,0,0,1.83,1.37,6.17,6.17,0,0,0,2.53.48,7,7,0,0,0,1.65-.19,4.17,4.17,0,0,0,1.43-.62A3.43,3.43,0,0,0,39,20a4.52,4.52,0,0,0,.56-1.65H34.78V15.22Z"/></g></g></svg>