<svg xmlns="http://www.w3.org/2000/svg" width="84.9976" height="102.1212" viewBox="0 0 84.9976 102.1212"><defs><style>.cls-1{fill:#fff;}</style></defs><g id="festival"><path class="cls-1" d="M291.75,240.42c-.28.25-.72.44-.8.76-.5,1.68-.86,3.44-1.47,5.1-.25.65-1.03,1.11-1.55,1.66a6.5939,6.5939,0,0,1-.72-2.06c-.06-5.82-.04-11.61-.04-17.43V227c-.63.4-1.05.72-1.51.95a2.3775,2.3775,0,0,0-1.39,2.52c.09,4.18,0,8.38,0,12.55a19.4317,19.4317,0,0,1-1.49,7.33,5.33,5.33,0,0,1-.78,1.37c-.21.25-.65.56-.86.48-.25-.08-.44-.52-.52-.86a4.4261,4.4261,0,0,1-.04-1.09v-9.39c0-.31-.05-.65-.09-1.17-1.24,1.05-3.06,1.28-2.85,3.25a8.6,8.6,0,0,0-1.91-.59c-1.81-.14-3.38,1.22-4.04,3.53a19.01,19.01,0,0,0-.06,9.15,2.7418,2.7418,0,0,1-2.79,3.32,21.6143,21.6143,0,0,0,.13-11.27c-.66.9-2.06.69-1.96,2.18a36.2823,36.2823,0,0,1,.21,5.31,16.1741,16.1741,0,0,1-2.41,7.27c-.76-3.7-1.43-7.06-2.12-10.46-2.77,1.32-2.77,1.32-2.19,4.01.11.48.17.97.32,1.43a11.4371,11.4371,0,0,1-.67,8.61,11.8029,11.8029,0,0,1-1.35,1.85c-.21-.05-.42-.11-.65-.15-.88-4.33-.12-8.78-.5-13.31a11.55,11.55,0,0,1-1.3.79,2.4666,2.4666,0,0,0-1.5,2.71c.13,2.57.07,5.13.03,7.69a9.92,9.92,0,0,1-1.87,5.56c-.28.38-.84.53-1.28.78-.21-.4-.59-.8-.61-1.22-.13-3.27-.15-6.57-.25-9.85a1.5361,1.5361,0,0,1,.98-1.72,1.885,1.885,0,0,0,1.14-2.66c-.7.39-1.33.75-2.15,1.21v-6.46c-1.97.77-3.27,1.82-2.85,4.15.17.95-.04,1.96.04,2.92a1.7712,1.7712,0,0,1-1.18,2.1c-1.11.44-1.28,1.28-.96,2.42.67-.38,1.32-.76,2.06-1.16.03.25.05.49.06.74.06,2.87.23,5.75.17,8.63a17.5705,17.5705,0,0,1-.88,3.59,18.37,18.37,0,0,1-1.89-3.34c-.76-1.68-1.56-3.38-2.19-5.12-.63-1.77-1.19-2.23-3.53-2.13,0,2.73.09,5.48-.02,8.24a16.639,16.639,0,0,1-2.24,8.35,8.2263,8.2263,0,0,1-2.42,2.46,1.5,1.5,0,0,1-2.43-.84c-.53-1.28-.36-1.68.98-2.25,3.36-1.43,4.75-4.09,3.91-7.51-.63-2.57-2.79-3.49-5.02-2.08a5.0269,5.0269,0,0,0-1.7,1.7,12.6342,12.6342,0,0,0-.23,12.01c.75,1.59,2.06,1.97,3.8,1.47,2.71-.76,4.26-2.71,5.31-5.15a21.7032,21.7032,0,0,0,1.72-9.11v-1.83a30.65,30.65,0,0,1,2.5,4.71,5.229,5.229,0,0,1,.34,1.15c.23,1.14-.34,2.1-1.37,1.89-1.34-.27-1.63.55-2.1,1.37,2.73,1.93,6.07.19,8.7-4.48,3.15.66,4.3-.18,6.48-4.68,2.23,1.6,4.73.38,6.43-3.88.19.56.34.98.5,1.51.21-.11.4-.17.57-.25,2.18-.95,3.19-2.88,4.22-4.83.17-.32.48-.78.76-.8a5.8374,5.8374,0,0,0,4.53-2.65c2.56,1.22,3.66.68,5.71-2.87,4.22.59,5.25-2.61,6.45-5.57a3.2465,3.2465,0,0,0,4.81-.54,3.0527,3.0527,0,0,0,.38-.49,16.2148,16.2148,0,0,0,2.24-7.11C292.55,241.09,292.02,240.74,291.75,240.42Zm-58.88,32.59c.25-.48.92-.78,1.41-1.16a4.8417,4.8417,0,0,1,.67,1.45c.21,1.96-.4,4.33-2.77,4.54A8.1346,8.1346,0,0,1,232.87,273.01Zm44.37-19.45a3.7988,3.7988,0,0,1-.93,1.54c-.69.75-1.49.63-1.74-.36a13.4058,13.4058,0,0,1,.23-8.69,2.25,2.25,0,0,1,1.64-1.24c.88.06,1.3.96,1.3,1.91v2.56c.04,0,.11.02.17.02C277.7,250.73,277.53,252.18,277.24,253.56Z" transform="translate(-207.5057 -198.9082)"/><path class="cls-1" d="M227.39,273.89c.042.273.042.357.063.42.3569,1.9317-.189,3.3806-2.1208,4.1365-.84.3149-1.0079.9868-1.0079,1.8477.042,3.2966.126,6.5932-.0629,9.8688-.21,3.9266-1.5119,7.3911-5.0394,9.6169-5.48,3.4435-10.31-.8609-11.57-5.2914a.8558.8558,0,0,1,.3149-.7769c1.0079-.7139,2.0578-1.3858,3.1917-2.1.2939.7979.5039,1.4909.7979,2.1418.6089,1.4278,1.5328,2.6247,3.1916,2.6037a4.0035,4.0035,0,0,0,3.9265-2.5827,10.6147,10.6147,0,0,0,.8189-3.4016c.126-2.7087.042-5.4173.042-8.336-1.3649.8609-2.6457,1.68-4.0735,2.5827,0-1.0289-.042-1.8688.021-2.7087a1.9071,1.9071,0,0,1,.3989-.7979.7528.7528,0,0,1,.294-.21c3.0656-1.1549,3.8425-3.4436,3.4646-6.5093a47.7524,47.7524,0,0,1-.042-6.0052c-1.3859.3359-2.6667.6509-4.0525.9869v-4.2835c3.5485-.294,6.0892-2.3517,8.42-5.3334V275.78c1.0919-.7349,2.0158-1.2809,3.0237-1.89" transform="translate(-207.5057 -198.9082)"/><path class="cls-1" d="M256.3037,249.1763a1.7932,1.7932,0,0,1,1.8058,1.7428,1.8706,1.8706,0,0,1-1.7638,1.8058,1.8066,1.8066,0,0,1-1.7637-1.7848,1.7,1.7,0,0,1,1.6356-1.7627c.0287-.0011.0574-.0014.0861-.0011" transform="translate(-207.5057 -198.9082)"/></g><g id="found"><path class="cls-1" d="M207.5267,278.9087v-4.4934q0-15.1182-.021-30.2154a1.8054,1.8054,0,0,1,.9239-1.7637c4.3045-2.7507,8.5669-5.5644,12.85-8.357.399-.252.8189-.504,1.4488-.8819,0,1.9947.042,3.7795-.042,5.5853-.0209.315-.5039.6929-.84.9239-2.73,1.8058-5.48,3.6326-8.2729,5.3543a2.3705,2.3705,0,0,0-1.3439,2.4147c.105,1.9738.021,3.9476.021,6.1943,2.6247-1.6378,5.0394-3.15,7.6641-4.7664,0,1.6168.042,3.0446-.042,4.4724-.021.252-.42.546-.7139.7139-1.9948,1.3019-3.9895,2.6247-6.0263,3.8846a1.7054,1.7054,0,0,0-.9029,1.6588c.042,4.9973,0,9.9947.042,14.9921a1.8847,1.8847,0,0,1-1.0079,1.8688c-1.1968.6719-2.3517,1.4908-3.7375,2.4147" transform="translate(-207.5057 -198.9082)"/><path class="cls-1" d="M270.771,230.7826q-3.8426-5.1969-7.7271-10.4567c-.084.021-.147.042-.231.063V223.14c0,3.8635-.0629,7.7061.042,11.57a2.3637,2.3637,0,0,1-1.3228,2.4357,22.29,22.29,0,0,0-1.9528,1.3018v-1.5748c0-6.6142.084-13.2283-.0629-19.8425a3.4375,3.4375,0,0,1,2.4357-3.7166c2.4987,3.3386,4.9973,6.6982,7.664,10.2888.042-.63.084-1.0079.084-1.3859,0-4.3464.042-8.6929-.021-13.0184a2.0643,2.0643,0,0,1,1.0709-2.0787c.7139-.399,1.3858-.9239,2.2887-1.5538v1.5538c0,6.6982-.084,13.3963.063,20.0945.042,1.8688-.5459,2.94-2.3307,3.57" transform="translate(-207.5057 -198.9082)"/><path class="cls-1" d="M289.69,203.93a4.64,4.64,0,0,0-2.27-4.29,4.2715,4.2715,0,0,0-4.91.09c-1.49.98-3,1.95-4.41,3.02a2.4209,2.4209,0,0,0-.82,1.55c-.08,3.36-.04,6.74-.04,10.1,0,3.41.02,6.83-.02,10.21-.02,1.11.46,1.39,1.4,1.13a3.7834,3.7834,0,0,0,1.12-.46c2.37-1.55,4.76-3.06,7.07-4.72a6.3468,6.3468,0,0,0,2.9-5.8C289.56,211.15,289.63,207.54,289.69,203.93ZM285.18,218c-1.37,1.05-2.86,1.93-4.5,3-.12-.78-.27-1.28-.29-1.79-.02-3.97-.02-7.96,0-11.92a4.7122,4.7122,0,0,1,3.32-4.85,1.8419,1.8419,0,0,1,2.77,1.84c.02,3.57-.02,7.14.02,10.71A3.5411,3.5411,0,0,1,285.18,218Z" transform="translate(-207.5057 -198.9082)"/><path class="cls-1" d="M238.48,236.47a4.9053,4.9053,0,0,0-5.36-4.7,8.78,8.78,0,0,0-7.3,8.04q-.045,5.385,0,10.82a12.2572,12.2572,0,0,0,.18,2.18,4.9129,4.9129,0,0,0,5.46,3.72,9.8382,9.8382,0,0,0,5.23-3.15,5.9163,5.9163,0,0,0,1.81-4.37c-.02-2.02,0-4.05,0-6.07C238.5,240.8,238.52,238.64,238.48,236.47Zm-3.22,12.33a4.26,4.26,0,0,1-3.17,4.11c-1.74.53-2.89-.31-2.89-2.12V239.5a4.4794,4.4794,0,0,1,3.54-4.2,2.0737,2.0737,0,0,1,2.52,2.08C235.29,241.18,235.31,245,235.26,248.8Z" transform="translate(-207.5057 -198.9082)"/><path class="cls-1" d="M255.0439,217.26v15.6221c0,1.8688.105,3.7376,0,5.6063a5.7464,5.7464,0,0,1-.8189,2.6037,8.6506,8.6506,0,0,1-4.64,3.57c-3.1077,1.0709-6.4882-1.1129-7.1812-4.6614a19.832,19.832,0,0,1-.2729-3.8636c-.042-2.9186.042-5.8373-.042-8.7769a1.9027,1.9027,0,0,1,1.05-1.9528c.693-.3989,1.3229-.8819,2.1838-1.47,0,1.7008-.021,3.1706,0,4.6614.063,3.2757,0,6.5722.231,9.8478.1679,2.2888,1.1968,3.2547,2.7506,3.1707a4.0117,4.0117,0,0,0,3.5906-3.8006c.021-5.5223.042-11.0446-.021-16.567a2.6606,2.6606,0,0,1,1.4908-2.8346c.5039-.273.9659-.6719,1.68-1.1549" transform="translate(-207.5057 -198.9082)"/></g></svg>