<svg id="Layer_2" data-name="Layer 2" xmlns="http://www.w3.org/2000/svg" width="311.4599" height="467.42" viewBox="0 0 311.4599 467.42"><defs><style>.cls-1{fill:#1affd7;}</style></defs><rect class="cls-1" x="8.894" y="1.1419" width="12" height="12" transform="translate(20.9479 13.1419) rotate(180)"/><rect class="cls-1" x="32.894" y="1.1419" width="12" height="12" transform="translate(68.9479 13.1419) rotate(180)"/><rect class="cls-1" x="44.894" y="1.1419" width="12" height="12" transform="translate(92.9479 13.1419) rotate(180)"/><rect class="cls-1" x="20.894" y="13" width="12" height="12" transform="translate(44.9479 36.8581) rotate(180)"/><rect class="cls-1" x="32.894" y="13" width="12" height="12" transform="translate(68.9479 36.8581) rotate(180)"/><rect class="cls-1" x="44.894" y="13" width="12" height="12" transform="translate(92.9479 36.8581) rotate(180)"/><rect class="cls-1" x="20.894" y="24.8581" width="12" height="12" transform="translate(44.9479 60.5744) rotate(180)"/><rect class="cls-1" x="32.894" y="24.8581" width="12" height="12" transform="translate(68.9479 60.5744) rotate(180)"/><rect class="cls-1" x="33" y="109" width="12" height="12" transform="translate(69.1598 228.8581) rotate(180)"/><rect class="cls-1" x="45" y="133" width="12" height="12" transform="translate(93.1598 276.8581) rotate(180)"/><rect class="cls-1" x="57" y="157" width="12" height="12" transform="translate(117.1598 324.8581) rotate(180)"/><rect class="cls-1" x="69" y="181" width="12" height="12" transform="translate(141.1598 372.8581) rotate(180)"/><rect class="cls-1" x="33.106" y="193.1419" width="12" height="12" transform="translate(69.3718 397.1419) rotate(180)"/><rect class="cls-1" x="33.212" y="277.2838" width="12" height="12" transform="translate(69.5838 565.4256) rotate(180)"/><rect class="cls-1" x="45.106" y="312.4033" width="12" height="12" transform="translate(93.3718 635.6648) rotate(180)"/><rect class="cls-1" x="45.106" y="385.2334" width="12" height="12" transform="translate(93.3718 781.325) rotate(180)"/><rect class="cls-1" x="68.757" y="420.5222" width="12" height="12" transform="translate(140.6738 851.9026) rotate(180)"/><rect class="cls-1" x="33" y="456.5619" width="12" height="12" transform="translate(69.1598 923.9819) rotate(180)"/><rect class="cls-1" x="21" y="337" width="12" height="12" transform="translate(45.1598 684.8581) rotate(180)"/><rect class="cls-1" x="44.894" y="24.8581" width="12" height="12" transform="translate(92.9479 60.5744) rotate(180)"/><rect class="cls-1" x="45" y="97" width="12" height="12" transform="translate(93.1598 204.8581) rotate(180)"/><rect class="cls-1" x="32.8761" y="36.8761" width="12" height="12" transform="translate(68.912 84.6103) rotate(180)"/><rect class="cls-1" x="20.8581" y="48.894" width="12" height="12" transform="translate(44.8761 108.6462) rotate(180)"/><rect class="cls-1" x="32.9821" y="61.0179" width="12" height="12" transform="translate(69.1239 132.894) rotate(180)"/><rect class="cls-1" x="45.106" y="73.1419" width="12" height="12" transform="translate(93.3718 157.1419) rotate(180)"/><rect class="cls-1" x="8.8402" y="60.912" width="12" height="12" transform="translate(20.8402 132.682) rotate(180)"/><rect class="cls-1" x="8.8402" y="73" width="12" height="12" transform="translate(20.8402 156.8581) rotate(180)"/><rect class="cls-1" x="8.8402" y="85.088" width="12" height="12" transform="translate(20.8402 181.0342) rotate(180)"/><rect class="cls-1" x="8.8402" y="97.1761" width="12" height="12" transform="translate(20.8402 205.2103) rotate(180)"/><rect class="cls-1" x="57" y="25" width="12" height="12" transform="translate(117.1598 60.8581) rotate(180)"/><rect class="cls-1" x="57" y="37" width="12" height="12" transform="translate(117.1598 84.8581) rotate(180)"/><rect class="cls-1" x="57" y="49" width="12" height="12" transform="translate(117.1598 108.8581) rotate(180)"/><rect class="cls-1" x="57" y="61" width="12" height="12" transform="translate(117.1598 132.8581) rotate(180)"/><rect class="cls-1" x="69.106" y="25.1419" width="12" height="12" transform="translate(141.3718 61.1419) rotate(180)"/><rect class="cls-1" x="81.212" y="25.2838" width="12" height="12" transform="translate(165.5838 61.4256) rotate(180)"/><rect class="cls-1" x="81" y="37" width="12" height="12" transform="translate(165.1598 84.8581) rotate(180)"/><rect class="cls-1" x="93" y="49" width="12" height="12" transform="translate(189.1598 108.8581) rotate(180)"/><rect class="cls-1" x="81" y="61" width="12" height="12" transform="translate(165.1598 132.8581) rotate(180)"/><rect class="cls-1" x="69" y="73" width="12" height="12" transform="translate(141.1598 156.8581) rotate(180)"/><rect class="cls-1" x="57" y="85" width="12" height="12" transform="translate(117.1598 180.8581) rotate(180)"/><rect class="cls-1" x="33" y="157" width="12" height="12" transform="translate(69.1598 324.8581) rotate(180)"/><rect class="cls-1" x="21" y="169" width="12" height="12" transform="translate(45.1598 348.8581) rotate(180)"/><rect class="cls-1" x="57" y="217" width="12" height="12" transform="translate(117.1598 444.8581) rotate(180)"/><rect class="cls-1" x="45" y="229" width="12" height="12" transform="translate(93.1598 468.8581) rotate(180)"/><rect class="cls-1" x="21" y="241.0832" width="12" height="12" transform="translate(45.1598 493.0245) rotate(180)"/><rect class="cls-1" x="81" y="277" width="12" height="12" transform="translate(165.1598 564.8581) rotate(180)"/><rect class="cls-1" x="69" y="289" width="12" height="12" transform="translate(141.1598 588.8581) rotate(180)"/><rect class="cls-1" x="105" y="337" width="12" height="12" transform="translate(213.1598 684.8581) rotate(180)"/><rect class="cls-1" x="93" y="349" width="12" height="12" transform="translate(189.1598 708.8581) rotate(180)"/><rect class="cls-1" x="105" y="61" width="12" height="12" transform="translate(213.1598 132.8581) rotate(180)"/><rect class="cls-1" x="117" y="73" width="12" height="12" transform="translate(237.1598 156.8581) rotate(180)"/><rect class="cls-1" x="68.8259" y="1.1419" width="12" height="12" transform="translate(140.8117 13.1419) rotate(180)"/><rect class="cls-1" x="92.7578" y="1.1419" width="12" height="12" transform="translate(188.6755 13.1419) rotate(180)"/><rect class="cls-1" x="104.808" y="13.192" width="12" height="12" transform="translate(212.7758 37.2422) rotate(180)"/><rect class="cls-1" x="116.8581" y="25.2422" width="12" height="12" transform="translate(236.8761 61.3425) rotate(180)"/><rect class="cls-1" x="128.9083" y="37.2923" width="12" height="12" transform="translate(260.9764 85.4428) rotate(180)"/><rect class="cls-1" x="140.9584" y="49.3425" width="12" height="12" transform="translate(285.0767 109.5431) rotate(180)"/><rect class="cls-1" x="129.1504" y="61.1504" width="12" height="12" transform="translate(261.4607 133.159) rotate(180)"/><rect class="cls-1" x="117.3425" y="72.9584" width="12" height="12" transform="translate(237.8447 156.775) rotate(180)"/><rect class="cls-1" x="129" y="85" width="12" height="12" transform="translate(261.1598 180.8581) rotate(180)"/><rect class="cls-1" x="140.6575" y="97.0416" width="12" height="12" transform="translate(284.4749 204.9413) rotate(180)"/><rect class="cls-1" x="152.3151" y="109.0832" width="12" height="12" transform="translate(307.79 229.0245) rotate(180)"/><rect class="cls-1" x="129" y="109" width="12" height="12" transform="translate(261.1598 228.8581) rotate(180)"/><rect class="cls-1" x="105" y="108.9168" width="12" height="12" transform="translate(213.1598 228.6918) rotate(180)"/><rect class="cls-1" x="105" y="121" width="12" height="12" transform="translate(213.1598 252.8581) rotate(180)"/><rect class="cls-1" x="117" y="133" width="12" height="12" transform="translate(237.1598 276.8581) rotate(180)"/><rect class="cls-1" x="105.1504" y="85.1504" width="12" height="12" transform="translate(213.4607 181.159) rotate(180)"/><rect class="cls-1" x="93.1504" y="97.1504" width="12" height="12" transform="translate(189.4607 205.159) rotate(180)"/><rect class="cls-1" x="81.1504" y="109.1504" width="12" height="12" transform="translate(165.4607 229.159) rotate(180)"/><rect class="cls-1" x="69" y="121" width="12" height="12" transform="translate(141.1598 252.8581) rotate(180)"/><rect class="cls-1" x="81" y="133" width="12" height="12" transform="translate(165.1598 276.8581) rotate(180)"/><rect class="cls-1" x="93" y="145" width="12" height="12" transform="translate(189.1598 300.8581) rotate(180)"/><rect class="cls-1" x="105" y="157" width="12" height="12" transform="translate(213.1598 324.8581) rotate(180)"/><rect class="cls-1" x="117" y="169" width="12" height="12" transform="translate(237.1598 348.8581) rotate(180)"/><rect class="cls-1" x="128.3151" y="181.1663" width="12" height="12" transform="translate(259.79 373.1908) rotate(180)"/><rect class="cls-1" x="105" y="181.0832" width="12" height="12" transform="translate(213.1598 373.0245) rotate(180)"/><rect class="cls-1" x="81" y="181" width="12" height="12" transform="translate(165.1598 372.8581) rotate(180)"/><rect class="cls-1" x="81" y="193.0832" width="12" height="12" transform="translate(165.1598 397.0245) rotate(180)"/><rect class="cls-1" x="93" y="205.0832" width="12" height="12" transform="translate(189.1598 421.0245) rotate(180)"/><rect class="cls-1" x="81" y="229.0832" width="12" height="12" transform="translate(165.1598 469.0245) rotate(180)"/><rect class="cls-1" x="93" y="241.0832" width="12" height="12" transform="translate(189.1598 493.0245) rotate(180)"/><rect class="cls-1" x="104.7578" y="1.1419" width="12" height="12" transform="translate(212.6755 13.1419) rotate(180)"/><rect class="cls-1" x="116.7578" y="1.1419" width="12" height="12" transform="translate(236.6755 13.1419) rotate(180)"/><rect class="cls-1" x="141" y="1.1419" width="12" height="12" transform="translate(285.1598 13.1419) rotate(180)"/><rect class="cls-1" x="165.2422" y="1.1419" width="12" height="12" transform="translate(333.6442 13.1419) rotate(180)"/><rect class="cls-1" x="177" y="1.1419" width="12" height="12" transform="translate(357.1598 13.1419) rotate(180)"/><rect class="cls-1" x="201" y="1.1419" width="12" height="12" transform="translate(405.1598 13.1419) rotate(180)"/><rect class="cls-1" x="201" y="12.7797" width="12" height="12" transform="translate(405.1598 36.4175) rotate(180)"/><rect class="cls-1" x="213" y="25.2838" width="12" height="12" transform="translate(429.1598 61.4256) rotate(180)"/><rect class="cls-1" x="213" y="1.1419" width="12" height="12" transform="translate(429.1598 13.1419) rotate(180)"/><rect class="cls-1" x="237" y="1.1419" width="12" height="12" transform="translate(477.1598 13.1419) rotate(180)"/><rect class="cls-1" x="248.8833" y="1.1419" width="12" height="12" transform="translate(500.9265 13.1419) rotate(180)"/><rect class="cls-1" x="272.65" y="1.1419" width="12" height="12" transform="translate(548.4599 13.1419) rotate(180)"/><rect class="cls-1" x="284.5334" y="1.1419" width="12" height="12" transform="translate(572.2265 13.1419) rotate(180)"/><rect class="cls-1" x="296.4167" y="1.1419" width="12" height="12" transform="translate(595.9932 13.1419) rotate(180)"/><rect class="cls-1" x="296.4167" y="12.8581" width="12" height="12" transform="translate(595.9932 36.5744) rotate(180)"/><rect class="cls-1" x="284.4035" y="24.8581" width="12" height="12" transform="translate(571.9668 60.5744) rotate(180)"/><rect class="cls-1" x="308.3" y="1.1419" width="12" height="12" transform="translate(619.7599 13.1419) rotate(180)"/></svg>