<svg id="Layer_1" data-name="Layer 1" xmlns="http://www.w3.org/2000/svg" width="30" height="24" viewBox="0 0 30 24"><defs><style>.cls-1{fill:#fff;}</style></defs><rect width="30" height="24" rx="2.6657"/><path class="cls-1" d="M14.6372,6.8354,14.2817,9.769a4.3526,4.3526,0,0,0-2.8974-1.0844,3.4616,3.4616,0,0,0-3.7329,3.4487,3.09,3.09,0,0,0,3.3242,3.1816,5.4173,5.4173,0,0,0,2.72-.7461L13.3218,17.59a7.1818,7.1818,0,0,1-2.791.5694,5.6751,5.6751,0,0,1-5.9551-5.8843A6.3852,6.3852,0,0,1,11.0464,5.84,6.8309,6.8309,0,0,1,14.6372,6.8354Z"/><path class="cls-1" d="M25.4243,6.8354,25.0688,9.769A4.354,4.354,0,0,0,22.17,8.6846a3.4612,3.4612,0,0,0-3.7324,3.4487,3.09,3.09,0,0,0,3.3242,3.1816,5.42,5.42,0,0,0,2.72-.7461l-.373,3.0215a7.1851,7.1851,0,0,1-2.791.5694,5.6751,5.6751,0,0,1-5.9551-5.8843A6.3849,6.3849,0,0,1,21.8335,5.84,6.8334,6.8334,0,0,1,25.4243,6.8354Z"/></svg>